<svg xmlns="http://www.w3.org/2000/svg" width="556.126" height="150.044"><path d="M111.64 119.327H94.279V82.576H55.631v36.751H38.393V30.705h17.238v35.631h38.648V30.705h17.361v88.622zm38.4-44.305a75.022 75.022 0 10-75.022 75.022 75.023 75.023 0 0075.022-75.022" fill="#a0d3df"/><path d="M532.674 64.239h-83.255l.022-.3c1.154-17.538 17.039-35.686 41.61-35.686 23.384-.466 40.412 18.082 41.61 35.686l.011.3zm4.315-37.627a65.346 65.346 0 00-92.882 1.409 68.512 68.512 0 00-18.658 47.422c0 32.957 24.626 67.046 65.837 67.046a62.113 62.113 0 0035.42-10.738c10.782-7.188 19.191-17.66 24.981-31.149h-24.194c-7.233 13.922-20.089 21.576-36.219 21.576-19.657 0-41.166-13.744-42.3-39.214l-.011-.3h106.795c2.041-21.8-4.448-41.177-18.769-56.053" fill="#fd0"/><path d="M236.659 101.933a2.869 2.869 0 003.749-1.353l.277-.555c.044-.089.166-.355.166-.355.033-.078.055-.155.1-.288 1.143-3.017 1.032-5.558-.322-7.554-1.553-2.3-4.47-3.461-8.686-3.461-1.631 0-7.155.566-15.552 1.6l-.266.033c-7.432.754-12.213-.011-13.1-6.146-.754-5.236.233-8.653 20.311-11.936 22.607-3.827 26.357.954 28.154 3.239.233.3.455.566.666.821a28.356 28.356 0 014.781 8.863 26.053 26.053 0 011.522 6.875c.089 1.176-.089 7.088-.089 7.088-1.875 21.554-20.322 38.371-42.2 38.371-23.284 0-43.085-19.568-43.44-42.819V20.433c0-.078.577-7.543 7.743-7.543s7.377 7.477 7.377 7.543l.022 45.515a2.826 2.826 0 002.829 2.829 2.826 2.826 0 002.829-2.829V54.777c.2-1.231 1.531-7.388 8.309-7.133 8.164.333 11.936 3.383 13.955 11.248a44.589 44.589 0 011.109 8.408 47.422 47.422 0 00-10.339 3.15c-.654-4.1-2.6-6.634-4.9-7.344a3.17 3.17 0 00-3.494 1.009 2.19 2.19 0 00-.322 1.753 2.318 2.318 0 00.965 1.431c1.109.654 1.841 2.052 2.152 4.182a15.318 15.318 0 01.155 2.207c-3.161 2.762-4.382 6.367-3.716 10.982 1.841 12.735 14.432 11.47 19.18 10.993l.255-.033c5.1-.632 13.345-1.575 15.109-1.575 2.629 0 3.738.61 3.982.954.377.521.166 1.22-.244 2.119-.144.333-.3.666-.455 1a2.861 2.861 0 001.431 3.8zm16.129-33.512c-2.917-2.141-7.055-3.306-12.635-3.561-.157-9.351-1.221-16.151-5.836-21.051-.222-.233-.51-.521-.843-.832 1.919-1.453 5.236-2.085 8.808-1.664a8.228 8.228 0 015.7 3.361c3.45 4.4 5.225 13.245 4.8 23.75m-22.603-20.725c3.394 3.594 4.16 9.041 4.293 17.194a106.675 106.675 0 00-11.936 1.387 49.811 49.811 0 00-1.242-8.819c-1.353-5.325-3.627-9.152-6.933-11.681a9.461 9.461 0 016.4-2.474v-.41l.011.41c4.759.011 8.164 3.084 9.407 4.393m33.889 51.094c.144-1.564.144-5.214.144-5.214a31.207 31.207 0 00-1.941-10.7 39.027 39.027 0 00-4.238-8.542c.632-5.535 1.963-23.517-5.58-33.157a13.789 13.789 0 00-9.518-5.513c-5.924-.688-11.2.8-14.21 3.96a17.312 17.312 0 00-7.976-1.975 14.917 14.917 0 00-11.648 5.447 26.822 26.822 0 00-7.055-1.143 13.269 13.269 0 00-8.519 2.463V20.422c0-4.315-3.195-13.223-13.056-13.223-10.039 0-13.423 9.085-13.423 13.223v72.415c0 27.011 22.086 50 49.1 50.007a48.014 48.014 0 0047.922-44.05z" fill="#383838"/><path d="M343.427 142.101l73.768-92.005H382.63V7.931h-78.405v42.164h-34.566z" fill="#f5c5c3"/></svg>